<?xml version="1.0"?><svg width="640" height="480" xmlns="http://www.w3.org/2000/svg" xmlns:xlink="http://www.w3.org/1999/xlink">
 <title>Clean Fire</title>
 <metadata id="metadata3">FirefestivefireOpen Clip Art LibraryValessio Soares de BritoValessio Soares de Britoimage/svg+xmlen</metadata>
 <defs>
  <linearGradient id="linearGradient17250">
   <stop id="stop17251" offset="0" stop-color="#dc0000"/>
   <stop id="stop17252" offset="1" stop-color="#ffb200"/>
  </linearGradient>
  <linearGradient xlink:href="#linearGradient17250" id="linearGradient4470" x1="0.258365" y1="1.281236" x2="0.528066" y2="0.359371"/>
  <linearGradient xlink:href="#linearGradient17250" id="linearGradient4479" x1="0.219525" y1="0.86719" x2="0.792708" y2="0.125014"/>
  <linearGradient xlink:href="#linearGradient17250" id="linearGradient4512" x1="0.70836" y1="0.90624" x2="0.500026" y2="0.460928"/>
  <linearGradient xlink:href="#linearGradient17250" id="linearGradient4515" x1="0.214298" y1="0.914058" x2="0.45239" y2="0.242186"/>
 </defs>
 <g>
  <title>Layer 1</title>
  <path transform="rotate(90.0235, 547.233, 163.263)" d="m541.587646,235.374405c31.909851,-35.33606 23.714478,-49.880981 18.502686,-74.210114c-11.086487,-11.215637 0.262024,-27.105774 9.34375,-70.011086c-29.057373,39.104744 -66.556824,45.609154 -27.846436,144.221199z" id="path15995" stroke-opacity="0.503817" stroke-miterlimit="4" stroke-width="2.156311" stroke="yellow" fill-rule="evenodd" fill="#ffd700"/>
  <path transform="rotate(90.0235, 321.153, 233.846)" d="m113.542114,357.137573c38.613815,109.742615 99.705765,167.93927 209.208588,174.591248c120.454041,37.134583 232.263824,-38.798218 200.564362,-157.962585c-14.408325,25.495514 -23.629669,39.351898 -48.410858,46.556366c9.797058,-65.956024 -53.023468,-77.041443 -22.478119,-147.985809c21.325287,-43.786591 34.003784,-97.54863 -3.457245,-141.335159c-15.561188,49.88353 -34.580841,83.138443 -72.618866,119.719284c4.03421,-60.967697 37.46225,-110.297531 17.291046,-167.939247c2.881439,-38.798195 -63.397583,-37.689526 -63.973389,-156.300316c-42.072235,50.991478 -59.939087,90.343636 -53.599213,167.9394c-15.561188,62.631294 -53.599228,85.355766 -46.683578,152.974205c-5.762817,-37.689529 -9.797058,-70.390701 -1.728577,-98.10228c-4.611298,-34.364784 -9.221313,-63.739975 -44.953705,-88.126823c10.94989,42.676682 23.629639,106.970345 -13.832642,123.04409c-10.374115,20.507141 -62.243851,90.897812 -5.187042,201.195358c-16.712738,-9.422974 -33.427124,-12.194 -50.140762,-28.267731l0,0z" id="path15991" stroke-opacity="0.503817" stroke-miterlimit="4" stroke-width="2.156311" stroke="yellow" fill-rule="evenodd" fill="url(#linearGradient4515)"/>
  <path transform="rotate(90.0235, 445.494, 349.577)" d="m430.520325,403.407593c-12.283813,-34.358215 -2.259705,-41.716248 8.500549,-56.726379c11.099915,-4.157532 7.697754,-18.653473 13.754761,-50.936493c9.171082,36.032867 33.791626,52.416412 -22.25531,107.662872z" id="path15994" stroke-opacity="0.503817" stroke-miterlimit="4" stroke-width="2.156311" stroke="yellow" fill-rule="evenodd" fill="#ffd700"/>
  <path transform="rotate(90.0235, 242.678, 426.583)" d="m229.593567,488.106537c31.698334,-29.37561 25.358673,-42.123566 22.47702,-63.18512c-9.221313,-9.976563 2.305298,-23.278809 13.83197,-59.85968c-29.392975,32.70108 -63.973022,37.135193 -36.30899,123.0448z" id="path15993" stroke-opacity="0.503817" stroke-miterlimit="4" stroke-width="2.156311" stroke="yellow" fill-rule="evenodd" fill="#ffd700"/>
  <path transform="rotate(90.0235, 184.508, 359.876)" d="m89.412994,504.536957c35.732666,-19.398987 45.530334,-80.367126 50.141022,-147.986298c8.64505,-65.40213 25.935059,-130.804306 140.049286,-141.335159c-46.683136,36.026718 -84.721191,80.367081 -67.431122,162.951248c-4.610687,120.273346 -97.400513,115.839325 -122.759186,126.370209z" id="path15992" stroke-opacity="0.503817" stroke-miterlimit="4" stroke-width="2.156311" stroke="yellow" fill-rule="evenodd" fill="url(#linearGradient4479)"/>
  <path transform="rotate(90.0235, 258.547, 245.457)" d="m215.657303,419.215607c-4.610748,-53.208527 -10.950378,-91.452271 58.786057,-139.672485c118.148438,-79.258484 59.938721,-125.261765 -13.832031,-207.845825c21.900696,82.029724 -13.255661,147.431885 -43.225082,191.21817c-19.595306,27.1586 -87.602753,82.584106 -1.728943,156.30014z" id="path15989" stroke-opacity="0.503817" stroke-miterlimit="4" stroke-width="2.156311" stroke="yellow" fill-rule="evenodd" fill="url(#linearGradient4470)"/>
  <g id="svg_1"/>
  <path transform="rotate(90.0235, 279.377, 133.119)" d="m369.582275,372.558289c-91.637146,-93.115051 -107.198181,-157.962906 -46.683044,-219.485245c68.007355,-116.393661 51.293671,-189.555435 1.728973,-259.391602c46.683075,154.637238 -55.328094,254.403168 -88.179138,299.297882c-19.595337,-58.196686 -2.881653,-83.138275 24.206055,-154.637222c-53.022766,55.425568 -85.297485,122.490463 -65.702087,186.229874c35.732697,95.886215 119.877472,116.947983 174.629242,147.986313z" id="path15990" stroke-opacity="0.503817" stroke-miterlimit="4" stroke-width="2.156311" stroke="yellow" fill-rule="evenodd" fill="url(#linearGradient4512)"/>
 </g>
</svg>